<svg xmlns="http://www.w3.org/2000/svg" xmlns:xlink="http://www.w3.org/1999/xlink" width="130" zoomAndPan="magnify" viewBox="0 0 97.5 37.5" height="50" preserveAspectRatio="xMidYMid meet" version="1.0"><defs><g/></defs><g fill="#000000" fill-opacity="1"><g transform="translate(3.087949, 22.583041)"><g><path d="M 4.625 -0.390625 L 5 -0.390625 C 5.78125 -0.390625 6.472656 -0.5625 7.078125 -0.90625 C 7.679688 -1.257812 8.171875 -1.757812 8.546875 -2.40625 C 8.910156 -3.039062 9.09375 -3.734375 9.09375 -4.484375 C 9.09375 -5.085938 8.976562 -5.632812 8.75 -6.125 C 8.53125 -6.625 8.242188 -7.050781 7.890625 -7.40625 C 7.535156 -7.757812 7.140625 -8.019531 6.703125 -8.1875 C 6.265625 -8.363281 5.757812 -8.453125 5.1875 -8.453125 C 5.101562 -8.453125 5.015625 -8.445312 4.921875 -8.4375 C 4.835938 -8.4375 4.738281 -8.4375 4.625 -8.4375 Z M 5.078125 -8.796875 C 5.703125 -8.796875 6.191406 -8.738281 6.546875 -8.625 C 7.097656 -8.46875 7.582031 -8.207031 8 -7.84375 C 8.414062 -7.488281 8.753906 -7.050781 9.015625 -6.53125 C 9.335938 -5.882812 9.5 -5.191406 9.5 -4.453125 C 9.5 -3.867188 9.398438 -3.328125 9.203125 -2.828125 C 9.015625 -2.359375 8.757812 -1.929688 8.4375 -1.546875 C 8.113281 -1.148438 7.796875 -0.859375 7.484375 -0.671875 C 7.160156 -0.453125 6.785156 -0.289062 6.359375 -0.1875 C 5.921875 -0.0625 5.398438 0 4.796875 0 L 0.734375 0 C 0.753906 -0.28125 0.769531 -0.539062 0.78125 -0.78125 C 0.789062 -1.019531 0.796875 -1.238281 0.796875 -1.4375 L 0.796875 -7.328125 C 0.796875 -7.460938 0.789062 -7.648438 0.78125 -7.890625 C 0.769531 -8.128906 0.753906 -8.429688 0.734375 -8.796875 Z M 5.078125 -8.796875 "/></g></g></g><g fill="#000000" fill-opacity="1"><g transform="translate(15.668075, 22.583041)"><g><path d="M 4.671875 -0.375 L 6.75 -0.375 C 7.007812 -0.375 7.253906 -0.375 7.484375 -0.375 C 7.710938 -0.382812 7.9375 -0.398438 8.15625 -0.421875 C 8.226562 -0.429688 8.289062 -0.4375 8.34375 -0.4375 C 8.394531 -0.4375 8.4375 -0.4375 8.46875 -0.4375 C 8.613281 -0.4375 8.707031 -0.414062 8.75 -0.375 C 8.800781 -0.34375 8.828125 -0.289062 8.828125 -0.21875 C 8.828125 -0.132812 8.804688 -0.078125 8.765625 -0.046875 C 8.722656 -0.015625 8.613281 0 8.4375 0 L 0.734375 0 C 0.753906 -0.28125 0.769531 -0.539062 0.78125 -0.78125 C 0.789062 -1.019531 0.796875 -1.238281 0.796875 -1.4375 L 0.796875 -7.328125 C 0.796875 -7.460938 0.789062 -7.648438 0.78125 -7.890625 C 0.769531 -8.128906 0.753906 -8.429688 0.734375 -8.796875 L 7.734375 -8.796875 C 7.941406 -8.796875 8.070312 -8.785156 8.125 -8.765625 C 8.1875 -8.742188 8.21875 -8.6875 8.21875 -8.59375 C 8.21875 -8.507812 8.191406 -8.445312 8.140625 -8.40625 C 8.097656 -8.363281 7.976562 -8.34375 7.78125 -8.34375 C 7.757812 -8.34375 7.726562 -8.34375 7.6875 -8.34375 C 7.65625 -8.34375 7.617188 -8.347656 7.578125 -8.359375 C 7.535156 -8.359375 7.410156 -8.363281 7.203125 -8.375 C 7.003906 -8.382812 6.71875 -8.394531 6.34375 -8.40625 C 6.175781 -8.414062 6.007812 -8.421875 5.84375 -8.421875 C 5.6875 -8.421875 5.539062 -8.421875 5.40625 -8.421875 C 5.3125 -8.421875 5.203125 -8.421875 5.078125 -8.421875 C 4.960938 -8.421875 4.828125 -8.414062 4.671875 -8.40625 L 4.640625 -6.34375 L 6.515625 -6.34375 L 8.203125 -6.390625 C 8.347656 -6.390625 8.441406 -6.367188 8.484375 -6.328125 C 8.523438 -6.296875 8.546875 -6.242188 8.546875 -6.171875 C 8.546875 -6.085938 8.507812 -6.023438 8.4375 -5.984375 C 8.382812 -5.953125 8.15625 -5.9375 7.75 -5.9375 L 4.640625 -5.9375 L 4.640625 -3.234375 Z M 4.671875 -0.375 "/></g></g></g><g fill="#000000" fill-opacity="1"><g transform="translate(27.336468, 22.583041)"><g><path d="M 0.734375 0 C 0.753906 -0.28125 0.769531 -0.539062 0.78125 -0.78125 C 0.789062 -1.019531 0.796875 -1.238281 0.796875 -1.4375 L 0.796875 -7.328125 C 0.796875 -7.460938 0.789062 -7.648438 0.78125 -7.890625 C 0.769531 -8.128906 0.753906 -8.429688 0.734375 -8.796875 L 4.703125 -8.796875 C 4.691406 -8.429688 4.675781 -8.128906 4.65625 -7.890625 C 4.644531 -7.648438 4.640625 -7.460938 4.640625 -7.328125 L 4.640625 -1.4375 C 4.640625 -1.238281 4.65625 -0.890625 4.6875 -0.390625 L 6.515625 -0.390625 C 6.585938 -0.390625 6.71875 -0.394531 6.90625 -0.40625 C 7.09375 -0.414062 7.332031 -0.425781 7.625 -0.4375 C 7.78125 -0.445312 7.914062 -0.457031 8.03125 -0.46875 C 8.144531 -0.476562 8.222656 -0.488281 8.265625 -0.5 C 8.304688 -0.5 8.34375 -0.5 8.375 -0.5 C 8.414062 -0.507812 8.457031 -0.515625 8.5 -0.515625 C 8.65625 -0.515625 8.734375 -0.425781 8.734375 -0.25 C 8.734375 -0.125 8.65625 -0.0390625 8.5 0 Z M 0.734375 0 "/></g></g></g><g fill="#000000" fill-opacity="1"><g transform="translate(38.783087, 22.583041)"><g><path d="M 1.171875 -1.640625 L 5.140625 -1.640625 C 4.660156 -2.628906 4.007812 -3.789062 3.1875 -5.125 Z M 5.15625 -9.46875 L 9.875 -1.015625 C 10.09375 -0.628906 10.316406 -0.289062 10.546875 0 L 6 0 L 5.34375 -1.25 L 0.96875 -1.25 L 0.34375 -0.140625 C 0.3125 -0.078125 0.285156 -0.03125 0.265625 0 C 0.242188 0.0195312 0.226562 0.0351562 0.21875 0.046875 C 0.175781 0.078125 0.132812 0.09375 0.09375 0.09375 C 0.03125 0.09375 -0.015625 0.0703125 -0.046875 0.03125 C -0.0859375 -0.0078125 -0.109375 -0.0625 -0.109375 -0.125 C -0.109375 -0.175781 -0.078125 -0.257812 -0.015625 -0.375 L 4.90625 -8.96875 Z M 5.15625 -9.46875 "/></g></g></g><g fill="#000000" fill-opacity="1"><g transform="translate(51.819083, 22.583041)"><g><path d="M 0.734375 0 C 0.753906 -0.28125 0.769531 -0.539062 0.78125 -0.78125 C 0.789062 -1.019531 0.796875 -1.238281 0.796875 -1.4375 L 0.796875 -7.328125 C 0.796875 -7.460938 0.789062 -7.648438 0.78125 -7.890625 C 0.769531 -8.128906 0.753906 -8.429688 0.734375 -8.796875 L 4.703125 -8.796875 C 4.691406 -8.429688 4.675781 -8.128906 4.65625 -7.890625 C 4.644531 -7.648438 4.640625 -7.460938 4.640625 -7.328125 L 4.640625 -1.4375 C 4.640625 -1.238281 4.65625 -0.890625 4.6875 -0.390625 L 6.515625 -0.390625 C 6.585938 -0.390625 6.71875 -0.394531 6.90625 -0.40625 C 7.09375 -0.414062 7.332031 -0.425781 7.625 -0.4375 C 7.78125 -0.445312 7.914062 -0.457031 8.03125 -0.46875 C 8.144531 -0.476562 8.222656 -0.488281 8.265625 -0.5 C 8.304688 -0.5 8.34375 -0.5 8.375 -0.5 C 8.414062 -0.507812 8.457031 -0.515625 8.5 -0.515625 C 8.65625 -0.515625 8.734375 -0.425781 8.734375 -0.25 C 8.734375 -0.125 8.65625 -0.0390625 8.5 0 Z M 0.734375 0 "/></g></g></g><g fill="#000000" fill-opacity="1"><g transform="translate(63.265702, 22.583041)"><g><path d="M 0.734375 0 C 0.753906 -0.28125 0.769531 -0.539062 0.78125 -0.78125 C 0.789062 -1.019531 0.796875 -1.238281 0.796875 -1.4375 L 0.796875 -7.328125 C 0.796875 -7.460938 0.789062 -7.648438 0.78125 -7.890625 C 0.769531 -8.128906 0.753906 -8.429688 0.734375 -8.796875 L 4.703125 -8.796875 C 4.691406 -8.429688 4.675781 -8.128906 4.65625 -7.890625 C 4.644531 -7.648438 4.640625 -7.460938 4.640625 -7.328125 L 4.640625 -1.4375 C 4.640625 -1.238281 4.644531 -1.019531 4.65625 -0.78125 C 4.675781 -0.539062 4.691406 -0.28125 4.703125 0 Z M 0.734375 0 "/></g></g></g><g fill="#000000" fill-opacity="1"><g transform="translate(71.287163, 22.583041)"><g><path d="M 4.703125 -0.171875 C 4.816406 -0.148438 4.921875 -0.132812 5.015625 -0.125 C 5.117188 -0.125 5.210938 -0.125 5.296875 -0.125 C 5.773438 -0.125 6.28125 -0.222656 6.8125 -0.421875 C 7.351562 -0.628906 7.820312 -0.941406 8.21875 -1.359375 C 8.632812 -1.765625 8.953125 -2.238281 9.171875 -2.78125 C 9.335938 -3.164062 9.429688 -3.585938 9.453125 -4.046875 L 5.875 -4.046875 C 5.625 -4.046875 5.476562 -4.0625 5.4375 -4.09375 C 5.394531 -4.113281 5.375 -4.160156 5.375 -4.234375 C 5.375 -4.316406 5.40625 -4.375 5.46875 -4.40625 C 5.519531 -4.425781 5.648438 -4.4375 5.859375 -4.4375 L 9.890625 -4.4375 C 9.878906 -4.195312 9.863281 -3.972656 9.84375 -3.765625 C 9.820312 -3.566406 9.789062 -3.382812 9.75 -3.21875 C 9.613281 -2.675781 9.378906 -2.164062 9.046875 -1.6875 C 8.722656 -1.21875 8.3125 -0.820312 7.8125 -0.5 C 7.414062 -0.226562 7.003906 -0.03125 6.578125 0.09375 C 6.160156 0.226562 5.722656 0.296875 5.265625 0.296875 C 4.753906 0.296875 4.269531 0.21875 3.8125 0.0625 C 3.363281 -0.0820312 2.953125 -0.28125 2.578125 -0.53125 C 2.203125 -0.789062 1.878906 -1.082031 1.609375 -1.40625 C 1.335938 -1.738281 1.128906 -2.078125 0.984375 -2.421875 C 0.691406 -3.035156 0.546875 -3.691406 0.546875 -4.390625 C 0.546875 -4.796875 0.59375 -5.191406 0.6875 -5.578125 C 0.789062 -5.972656 0.941406 -6.34375 1.140625 -6.6875 C 1.335938 -7.039062 1.582031 -7.363281 1.875 -7.65625 C 2.164062 -7.945312 2.492188 -8.203125 2.859375 -8.421875 C 3.585938 -8.847656 4.378906 -9.0625 5.234375 -9.0625 C 5.890625 -9.0625 6.519531 -8.929688 7.125 -8.671875 C 7.726562 -8.421875 8.265625 -8.046875 8.734375 -7.546875 C 8.960938 -7.285156 9.078125 -7.09375 9.078125 -6.96875 C 9.078125 -6.914062 9.0625 -6.875 9.03125 -6.84375 C 9.007812 -6.8125 8.984375 -6.796875 8.953125 -6.796875 C 8.890625 -6.796875 8.832031 -6.8125 8.78125 -6.84375 C 8.738281 -6.875 8.664062 -6.957031 8.5625 -7.09375 C 8.25 -7.476562 7.941406 -7.773438 7.640625 -7.984375 C 7.328125 -8.210938 6.953125 -8.390625 6.515625 -8.515625 C 6.085938 -8.648438 5.660156 -8.71875 5.234375 -8.71875 C 5.046875 -8.71875 4.867188 -8.703125 4.703125 -8.671875 Z M 4.703125 -0.171875 "/></g></g></g><g fill="#000000" fill-opacity="1"><g transform="translate(84.101383, 22.583041)"><g><path d="M 8.75 -7.59375 C 8.75 -7.726562 8.75 -7.84375 8.75 -7.9375 C 8.75 -8.039062 8.742188 -8.125 8.734375 -8.1875 C 8.734375 -8.28125 8.734375 -8.359375 8.734375 -8.421875 C 8.734375 -8.484375 8.734375 -8.535156 8.734375 -8.578125 C 8.734375 -8.765625 8.8125 -8.859375 8.96875 -8.859375 C 9.132812 -8.859375 9.21875 -8.765625 9.21875 -8.578125 C 9.21875 -8.535156 9.210938 -8.484375 9.203125 -8.421875 C 9.203125 -8.359375 9.203125 -8.28125 9.203125 -8.1875 C 9.191406 -8.113281 9.1875 -8.023438 9.1875 -7.921875 C 9.1875 -7.828125 9.1875 -7.71875 9.1875 -7.59375 L 9.1875 -1.203125 C 9.1875 -0.984375 9.191406 -0.753906 9.203125 -0.515625 C 9.210938 -0.273438 9.226562 -0.0195312 9.25 0.25 C 8.9375 0.0507812 8.632812 -0.128906 8.34375 -0.296875 C 8.0625 -0.472656 7.800781 -0.632812 7.5625 -0.78125 C 7.320312 -0.914062 6.976562 -1.109375 6.53125 -1.359375 C 6.082031 -1.617188 5.53125 -1.9375 4.875 -2.3125 L 2.546875 -3.59375 C 2.367188 -3.675781 2.164062 -3.773438 1.9375 -3.890625 C 1.71875 -4.003906 1.472656 -4.128906 1.203125 -4.265625 L 1.203125 -1.203125 C 1.203125 -1.066406 1.203125 -0.945312 1.203125 -0.84375 C 1.203125 -0.75 1.203125 -0.671875 1.203125 -0.609375 C 1.210938 -0.515625 1.21875 -0.429688 1.21875 -0.359375 C 1.226562 -0.296875 1.234375 -0.242188 1.234375 -0.203125 C 1.234375 -0.015625 1.148438 0.078125 0.984375 0.078125 C 0.816406 0.078125 0.734375 -0.015625 0.734375 -0.203125 C 0.734375 -0.242188 0.734375 -0.296875 0.734375 -0.359375 C 0.742188 -0.421875 0.753906 -0.503906 0.765625 -0.609375 L 0.765625 -8.390625 L 0.734375 -9.078125 C 1.179688 -8.804688 1.679688 -8.503906 2.234375 -8.171875 C 2.785156 -7.847656 3.398438 -7.492188 4.078125 -7.109375 C 4.867188 -6.671875 5.648438 -6.238281 6.421875 -5.8125 C 7.191406 -5.394531 7.96875 -4.988281 8.75 -4.59375 Z M 8.75 -7.59375 "/></g></g></g></svg>